<svg width="512" height="512" viewBox="0 0 512 512" fill="none" xmlns="http://www.w3.org/2000/svg">
<g clip-path="url(#clip0_1_5)">
<path d="M504.824 123.505L477.631 106.836C466.913 85.7486 446.306 70.7839 422.745 67.3095L416.353 66.3675L416.211 29.4504C416.184 22.2782 411.093 16.1251 404.053 14.7532C397.013 13.3793 389.987 17.1744 387.268 23.8124L368.665 69.2446C368.404 69.882 368.207 70.5283 368.038 71.1777C335.568 84.3847 312.616 116.276 312.616 153.432V179.607C312.616 198.947 296.882 214.682 277.542 214.682H267.502C187.38 214.682 122.195 279.867 122.195 359.989V467.454H59.4819C43.2606 467.454 30.0637 454.257 30.0637 438.035C30.0637 421.813 43.2606 408.616 59.4819 408.616H66.9668C75.2684 408.616 81.9986 401.886 81.9986 393.584C81.9986 385.283 75.2684 378.552 66.9668 378.552H59.4819C26.6835 378.553 0 405.237 0 438.035C0 470.833 26.6835 497.516 59.4819 497.516L326.465 497.526C339.545 497.526 351.35 491.994 359.688 483.155C369.482 492.075 382.493 497.521 396.752 497.523L416.803 497.526C441.669 497.526 461.899 477.297 461.899 452.431C461.899 432.832 449.333 416.115 431.835 409.911V360.818C455.303 328.038 468.174 288.098 468.174 247.764V207.431L498.321 185.504C501.364 183.29 503.467 180.015 504.213 176.327L511.701 139.301C512.953 133.114 510.205 126.804 504.824 123.505V123.505ZM475.906 164.633L444.301 187.62C440.411 190.449 438.111 194.968 438.111 199.777V247.764C438.111 283.298 426.289 318.471 404.822 346.804C402.843 349.417 401.772 352.605 401.772 355.882V422.368C401.772 430.67 408.502 437.4 416.803 437.4C425.092 437.4 431.835 444.142 431.835 452.432C431.835 460.72 425.092 467.464 416.805 467.464L396.757 467.461C382.945 467.458 371.708 456.219 371.708 442.408V343.201C371.708 334.899 364.978 328.169 356.676 328.169C348.375 328.169 341.644 334.899 341.644 343.201V408.728C336.891 407.049 331.785 406.126 326.465 406.126H307.263V379.586C307.263 337.221 278.62 300.344 237.609 289.907C229.564 287.863 221.382 292.723 219.334 300.768C217.287 308.813 222.149 316.994 230.194 319.042C257.869 326.084 277.198 350.981 277.198 379.586V421.158C277.198 429.459 283.928 436.189 292.23 436.189H326.464C335.084 436.189 342.097 443.202 342.097 451.831C342.097 460.451 335.084 467.464 326.464 467.464H293.924C293.859 467.463 293.796 467.454 293.731 467.454H152.259V359.989C152.259 296.444 203.958 244.745 267.503 244.745H277.543C313.46 244.745 342.681 215.524 342.681 179.607V153.432C342.681 121.068 369.01 94.7386 401.374 94.7386H401.432H402.665L418.361 97.0535C433.285 99.2541 446.206 109.253 452.081 123.148C453.303 126.036 455.397 128.471 458.07 130.108L480.151 143.644L475.906 164.633Z" fill="black"/>
</g>
<defs>
<clipPath id="clip0_1_5">
<rect width="512" height="512" fill="white"/>
</clipPath>
</defs>
</svg>
