<svg width="512" height="512" viewBox="0 0 512 512" fill="none" xmlns="http://www.w3.org/2000/svg">
<g clip-path="url(#clip0_1_2)">
<path d="M504.824 123.505L477.631 106.836C466.913 85.7475 446.306 70.7839 422.746 67.3105L416.353 66.3675L416.211 29.4504C416.184 22.2782 411.093 16.1251 404.053 14.7532C397.013 13.3793 389.987 17.1744 387.268 23.8124L368.666 69.2446C368.407 69.8759 368.21 70.5233 368.04 71.1767C335.57 84.3827 312.616 116.275 312.616 153.432V179.607C312.616 198.978 296.913 214.682 277.542 214.682H267.502C187.38 214.682 122.195 279.867 122.195 359.989V360.685V360.724V427.374C122.195 442.28 126.859 456.091 134.786 467.455H59.4819C43.2606 467.454 30.0637 454.257 30.0637 438.035C30.0637 421.813 43.2606 408.617 59.4819 408.617H66.9668C75.2684 408.617 81.9986 401.887 81.9986 393.585C81.9986 385.284 75.2684 378.553 66.9668 378.553H59.4819C26.6835 378.553 0 405.237 0 438.035C0 470.834 26.6835 497.516 59.4819 497.516L337.059 497.526C338.185 497.526 339.294 497.458 340.395 497.356V471.863C340.395 457.718 328.886 446.209 314.74 446.209H292.231C283.929 446.209 277.199 439.478 277.199 431.177V369.562C277.199 335.117 249.176 307.093 214.73 307.093C206.428 307.093 199.698 300.363 199.698 292.061C199.698 283.76 206.428 277.03 214.73 277.03C265.753 277.03 307.263 318.539 307.263 369.562V416.145H314.74C345.462 416.145 370.458 441.139 370.458 471.863V474.411C370.46 474.406 370.462 474.401 370.464 474.396C376.854 488.049 390.706 497.511 406.775 497.514L426.825 497.517C443.428 497.517 456.888 484.058 456.888 467.454C456.888 450.85 443.429 437.39 426.825 437.39V367.512C453.518 333.452 468.174 291.095 468.174 247.764V207.43L498.321 185.503C501.364 183.289 503.466 180.015 504.213 176.327L511.701 139.3C512.953 133.114 510.205 126.804 504.824 123.505V123.505ZM457.501 138.859C454.695 141.655 450.826 143.259 446.868 143.259C442.91 143.259 439.042 141.655 436.237 138.859C433.441 136.053 431.836 132.186 431.836 128.227C431.836 124.269 433.441 120.4 436.237 117.595C439.043 114.799 442.91 113.196 446.868 113.196C450.826 113.196 454.696 114.799 457.501 117.595C460.297 120.401 461.9 124.269 461.9 128.227C461.899 132.186 460.297 136.053 457.501 138.859Z" fill="black"/>
</g>
<defs>
<clipPath id="clip0_1_2">
<rect width="512" height="512" fill="white"/>
</clipPath>
</defs>
</svg>
